<svg width="30" height="30" viewBox="0 0 30 30" fill="none" xmlns="http://www.w3.org/2000/svg">
    <path
        d="M4 10.948L6.19596 7.0043C6.55015 6.39192 7.18769 6 7.87245 6H25.511C26.5263 6 27.2347 7.0288 26.9277 8.0086L21.9927 23.7345C21.851 24.1509 21.2843 24.0529 21.2843 23.612V12.4912C21.2843 11.6339 20.6232 10.948 19.7968 10.948H4Z"
        fill="#00205C" />
    <path
        d="M3 10.948L5.19596 7.0043C5.55015 6.39192 6.18769 6 6.87245 6H24.511C25.5263 6 26.2347 7.0288 25.9277 8.0086L20.9927 23.7345C20.851 24.1509 20.2843 24.0529 20.2843 23.612V12.4912C20.2843 11.6339 19.6232 10.948 18.7968 10.948H3Z"
        fill="currentColor" />
</svg>