<svg width="30" height="30" viewBox="0 0 30 30" fill="none" xmlns="http://www.w3.org/2000/svg">
    <path
        d="M11.0755 8.4359L12.3326 4.51183C12.4332 4.20473 12.7013 4 13.0198 4L26.1435 4C27.4005 4 28.3056 5.24546 27.9034 6.47387L21.7689 25.6847C21.6181 26.1795 20.8974 26.0601 20.8974 25.5482L20.8974 11.9334C20.8974 10.8927 20.0761 10.0567 19.0537 10.0567L12.2153 10.0567C11.394 10.0567 10.8074 9.23777 11.0588 8.4359L11.0755 8.4359Z"
        fill="currentColor" />
    <path
        d="M18.9244 21.5641L17.6674 25.4882C17.5668 25.7953 17.2987 26 16.9802 26L3.85652 26C2.59946 26 1.69438 24.7545 2.09664 23.5261L8.23108 4.31528C8.38193 3.8205 9.10264 3.93993 9.10264 4.45177L9.10264 18.0666C9.10264 19.1073 9.92392 19.9433 10.9463 19.9433L17.7847 19.9433C18.606 19.9433 19.1926 20.7622 18.9412 21.5641L18.9244 21.5641Z"
        fill="currentColor" />
</svg>