<svg width="18" height="18" viewBox="0 0 18 18" fill="none" xmlns="http://www.w3.org/2000/svg">
  <path fill="#4285F4" d="M17.64 9.204c0-.638-.057-1.252-.164-1.841H9v3.481h4.844a4.14 4.14 0 0 1-1.796 2.716v2.258h2.91c1.702-1.567 2.682-3.874 2.682-6.614Z"/>
  <path fill="#34A853" d="M9 18c2.43 0 4.467-.806 5.956-2.182l-2.909-2.258c-.805.54-1.836.859-3.047.859-2.344 0-4.328-1.583-5.036-3.71H.957v2.332A8.997 8.997 0 0 0 9 18Z"/>
  <path fill="#FBBC05" d="M3.964 10.71A5.41 5.41 0 0 1 3.682 9c0-.593.102-1.17.282-1.71V4.958H.957A8.997 8.997 0 0 0 0 9c0 1.452.348 2.827.957 4.043l3.007-2.333Z"/>
  <path fill="#EA4335" d="M9 3.58c1.322 0 2.508.454 3.44 1.345l2.582-2.581C13.463.891 11.426 0 9 0A8.997 8.997 0 0 0 .957 4.957L3.964 7.29C4.672 5.163 6.656 3.58 9 3.58Z"/>
</svg>
