<svg width="30" height="30" viewBox="0 0 30 30" fill="none" xmlns="http://www.w3.org/2000/svg">
    <path
        d="M20 14.5C20 13.1193 21.0446 12 22.3333 12C24.9106 12 27 14.2387 27 17C27 19.7613 24.9106 22 22.3333 22C21.0446 22 20 20.8807 20 19.5V14.5Z"
        stroke="currentColor" stroke-width="1.5" />
    <path
        d="M11 14.5C11 13.1193 9.80608 12 8.33336 12C5.38782 12 3 14.2387 3 17C3 19.7613 5.38782 22 8.33336 22C9.80608 22 11 20.8807 11 19.5V14.5Z"
        stroke="currentColor" stroke-width="1.5" />
    <path
        d="M3 17.4V13.8C3 7.83534 8.37256 3 15 3C21.6274 3 27 7.83534 27 13.8V19.6155C27 22.0254 27 23.2303 26.5302 24.17C25.9954 25.2395 25.0438 26.0958 23.8556 26.5771C22.8114 27 21.4726 27 18.795 27H15"
        stroke="currentColor" stroke-width="1.5" stroke-linecap="round" stroke-linejoin="round" />
</svg>