<svg width="175" height="155" viewBox="0 0 175 155" fill="none" xmlns="http://www.w3.org/2000/svg">
<path d="M135.004 149.107L146.692 128.827H65.5645C61.2087 128.827 58.1233 124.546 59.43 120.374L80.7737 54.8177C81.3182 53.1851 83.7865 53.5479 83.7865 55.3256V101.763C83.7865 105.318 86.6904 108.184 90.2476 108.184H158.634L173.626 82.2447C175.441 79.0521 175.441 75.1702 173.626 71.9777L135.004 5.15163C133.153 1.95907 129.741 0 126.038 0H48.9034C45.2373 0 41.8252 1.95907 39.9376 5.15163L28.2495 25.4316H109.377C113.733 25.4316 116.891 29.7126 115.512 33.8847L94.1679 99.4409C93.6234 101.073 91.1551 100.711 91.1551 98.933V52.4958C91.1551 48.9405 88.2512 46.0744 84.6939 46.0744H16.3435L1.38843 71.9777C-0.462808 75.1702 -0.462808 79.0521 1.38843 82.2447L39.9376 149.107C41.7889 152.3 45.201 154.259 48.9034 154.259H126.074C129.741 154.259 133.153 152.3 135.04 149.107H135.004Z" fill="url(#paint0_linear_1090_6125)"/>
<defs>
<linearGradient id="paint0_linear_1090_6125" x1="87.4889" y1="-27.427" x2="87.4889" y2="180.126" gradientUnits="userSpaceOnUse">
<stop stop-color="#E8AC22"/>
<stop offset="0.32" stop-color="#F5C41D"/>
<stop offset="0.68" stop-color="#FCF494"/>
<stop offset="1" stop-color="#FEF280"/>
</linearGradient>
</defs>
</svg>
