<svg width="154" height="43" viewBox="0 0 154 43" fill="none" xmlns="http://www.w3.org/2000/svg">
<path d="M110.192 15.77V26.65C110.192 29.72 111.533 32.03 114.793 32.03C118.053 32.03 119.393 29.72 119.393 26.65V24.22H118.052V26.74C118.052 29.02 117.173 30.72 114.823 30.72C112.473 30.72 111.592 29.02 111.592 26.74V15.67C111.592 13.39 112.473 11.66 114.823 11.66C117.173 11.66 118.052 13.39 118.052 15.67V17.52H119.393V15.76C119.393 12.69 118.053 10.38 114.793 10.38C111.533 10.38 110.192 12.69 110.192 15.76V15.77Z" fill="currentColor"/>
<path d="M121.573 15.77V26.65C121.573 29.75 123.002 32.03 126.232 32.03C129.462 32.03 130.953 29.75 130.953 26.65V15.77C130.953 12.67 129.522 10.39 126.232 10.39C122.942 10.39 121.573 12.67 121.573 15.77ZM129.552 15.68V26.75C129.552 29.06 128.612 30.76 126.232 30.76C123.852 30.76 122.973 29.06 122.973 26.75V15.68C122.973 13.37 123.882 11.67 126.232 11.67C128.582 11.67 129.552 13.37 129.552 15.68Z" fill="currentColor"/>
<path d="M134.662 31.85V22.33H136.882C139.322 22.33 140.873 23.12 140.873 25.95V29.29C140.873 30.45 140.962 31.21 141.332 31.84H142.793C142.333 31.14 142.272 30.17 142.272 29.29V25.98C142.272 23.67 141.392 22.12 139.192 21.63C141.292 21.14 142.272 19.71 142.272 17.22V15.37C142.272 12.36 140.963 10.57 137.703 10.57H133.252V31.85H134.653H134.662ZM134.662 21.06V11.85H137.683C139.993 11.85 140.882 13.22 140.882 15.5V17.51C140.882 20.37 139.422 21.07 136.922 21.07H134.672L134.662 21.06Z" fill="currentColor"/>
<path d="M146.412 31.85V23.09H149.063C152.443 23.09 153.993 21.42 153.993 18.04V15.73C153.993 12.63 152.712 10.56 149.422 10.56H145.002V31.84H146.403L146.412 31.85ZM146.412 21.82V11.85H149.433C151.803 11.85 152.603 13.34 152.603 15.65V18.14C152.603 20.72 151.533 21.82 149.073 21.82H146.422H146.412Z" fill="currentColor"/>
<path d="M55.8025 10.57V13.61H62.1525L55.7825 28.87V31.85H65.5925V28.81H59.2225L65.5925 13.55V10.57H55.8025Z" fill="url(#paint0_linear_0_1)"/>
<path d="M90.7825 31.85V10.57H87.8025V23.31L84.3625 10.57H80.1625V31.85H83.1725V16.44L87.3425 31.85H90.7825Z" fill="url(#paint1_linear_0_1)"/>
<path d="M92.9125 15.68V26.75C92.9125 30.16 94.7125 32.1 98.0025 32.1C101.293 32.1 103.092 30.15 103.092 26.75V15.68C103.092 12.27 101.293 10.33 98.0025 10.33C94.7125 10.33 92.9125 12.28 92.9125 15.68ZM99.7325 15.47V26.96C99.7325 28.48 99.0625 29.06 97.9925 29.06C96.9225 29.06 96.2525 28.48 96.2525 26.96V15.47C96.2525 13.95 96.9225 13.37 97.9925 13.37C99.0625 13.37 99.7325 13.95 99.7325 15.47Z" fill="url(#paint2_linear_0_1)"/>
<path d="M67.5625 13.77H76.7125C77.5425 13.77 78.2125 13.1 78.2125 12.27V10.58H69.0625C68.2325 10.58 67.5625 11.25 67.5625 12.08V13.77Z" fill="url(#paint3_linear_0_1)"/>
<path d="M78.2225 31.85V30.16C78.2225 29.33 77.5525 28.66 76.7225 28.66H67.5725V30.35C67.5725 31.18 68.2425 31.85 69.0725 31.85H78.2225Z" fill="url(#paint4_linear_0_1)"/>
<path d="M76.7125 19.61H69.0625C68.2341 19.61 67.5625 20.2816 67.5625 21.11V21.31C67.5625 22.1384 68.2341 22.81 69.0625 22.81H76.7125C77.5409 22.81 78.2125 22.1384 78.2125 21.31V21.11C78.2125 20.2816 77.5409 19.61 76.7125 19.61Z" fill="url(#paint5_linear_0_1)"/>
<path d="M37.1925 41.1L40.4125 35.51H18.0625C16.8625 35.51 16.0125 34.33 16.3725 33.18L22.2525 15.11C22.4025 14.66 23.0825 14.76 23.0825 15.25V28.05C23.0825 29.03 23.8825 29.82 24.8625 29.82H43.7025L47.8325 22.67C48.3325 21.79 48.3325 20.72 47.8325 19.84L37.1925 1.42C36.6825 0.54 35.7425 0 34.7225 0H13.4725C12.4625 0 11.5225 0.54 11.0025 1.42L7.7825 7.01H30.1325C31.3325 7.01 32.2025 8.19 31.8225 9.34L25.9425 27.41C25.7925 27.86 25.1125 27.76 25.1125 27.27V14.47C25.1125 13.49 24.3125 12.7 23.3325 12.7H4.5025L0.3825 19.84C-0.1275 20.72 -0.1275 21.79 0.3825 22.67L11.0025 41.1C11.5125 41.98 12.4525 42.52 13.4725 42.52H34.7325C35.7425 42.52 36.6825 41.98 37.2025 41.1H37.1925Z" fill="url(#paint6_linear_0_1)"/>
<defs>
<linearGradient id="paint0_linear_0_1" x1="60.6825" y1="-7.55999" x2="60.6825" y2="49.65" gradientUnits="userSpaceOnUse">
<stop stop-color="#E8AC22"/>
<stop offset="0.32" stop-color="#F5C41D"/>
<stop offset="0.68" stop-color="#FCF494"/>
<stop offset="1" stop-color="#FEF280"/>
</linearGradient>
<linearGradient id="paint1_linear_0_1" x1="85.4671" y1="-7.55999" x2="85.4671" y2="49.65" gradientUnits="userSpaceOnUse">
<stop stop-color="#E8AC22"/>
<stop offset="0.32" stop-color="#F5C41D"/>
<stop offset="0.68" stop-color="#FCF494"/>
<stop offset="1" stop-color="#FEF280"/>
</linearGradient>
<linearGradient id="paint2_linear_0_1" x1="98.0025" y1="-7.56" x2="98.0025" y2="49.65" gradientUnits="userSpaceOnUse">
<stop stop-color="#E8AC22"/>
<stop offset="0.32" stop-color="#F5C41D"/>
<stop offset="0.68" stop-color="#FCF494"/>
<stop offset="1" stop-color="#FEF280"/>
</linearGradient>
<linearGradient id="paint3_linear_0_1" x1="72.8925" y1="-7.56" x2="72.8925" y2="49.65" gradientUnits="userSpaceOnUse">
<stop stop-color="#E8AC22"/>
<stop offset="0.32" stop-color="#F5C41D"/>
<stop offset="0.68" stop-color="#FCF494"/>
<stop offset="1" stop-color="#FEF280"/>
</linearGradient>
<linearGradient id="paint4_linear_0_1" x1="72.8925" y1="-7.56" x2="72.8925" y2="49.65" gradientUnits="userSpaceOnUse">
<stop stop-color="#E8AC22"/>
<stop offset="0.32" stop-color="#F5C41D"/>
<stop offset="0.68" stop-color="#FCF494"/>
<stop offset="1" stop-color="#FEF280"/>
</linearGradient>
<linearGradient id="paint5_linear_0_1" x1="72.8925" y1="-7.55999" x2="72.8925" y2="49.65" gradientUnits="userSpaceOnUse">
<stop stop-color="#E8AC22"/>
<stop offset="0.32" stop-color="#F5C41D"/>
<stop offset="0.68" stop-color="#FCF494"/>
<stop offset="1" stop-color="#FEF280"/>
</linearGradient>
<linearGradient id="paint6_linear_0_1" x1="24.1025" y1="-7.56" x2="24.1025" y2="49.65" gradientUnits="userSpaceOnUse">
<stop stop-color="#E8AC22"/>
<stop offset="0.32" stop-color="#F5C41D"/>
<stop offset="0.68" stop-color="#FCF494"/>
<stop offset="1" stop-color="#FEF280"/>
</linearGradient>
</defs>
</svg>
