<svg width="30" height="30" viewBox="0 0 30 30" fill="none" xmlns="http://www.w3.org/2000/svg">
    <path
        d="M22.8981 13.6518C22.6573 13.8752 22.3353 14 22.0001 14C21.6651 14 21.343 13.8752 21.1022 13.6518C18.8959 11.5943 15.9394 9.29576 17.3813 5.95881C18.1608 4.15454 20.0321 3 22.0001 3C23.9681 3 25.8394 4.15454 26.619 5.95881C28.059 9.29164 25.1098 11.6014 22.8981 13.6518Z"
        stroke="currentColor" stroke-width="1.5" />
    <path
        d="M6.49998 27C8.43297 27 10 25.433 10 23.5C10 21.567 8.43297 20 6.49998 20C4.56699 20 3 21.567 3 23.5C3 25.433 4.56699 27 6.49998 27Z"
        stroke="currentColor" stroke-width="1.5" stroke-linecap="round" stroke-linejoin="round" />
    <path
        d="M14 9H12.2C9.88038 9 8 10.679 8 12.75C8 14.8211 9.88038 16.5 12.2 16.5H15.8001C18.1196 16.5 20 18.1789 20 20.25C20 22.3211 18.1196 24 15.8001 24H14"
        stroke="currentColor" stroke-width="1.5" stroke-linecap="round" stroke-linejoin="round" />
</svg>