<svg width="49" height="43" viewBox="0 0 49 43" fill="none" xmlns="http://www.w3.org/2000/svg">
    <path
        d="M37.1925 41.1L40.4125 35.51H18.0625C16.8625 35.51 16.0125 34.33 16.3725 33.18L22.2525 15.11C22.4025 14.66 23.0825 14.76 23.0825 15.25V28.05C23.0825 29.03 23.8825 29.82 24.8625 29.82H43.7025L47.8325 22.67C48.3325 21.79 48.3325 20.72 47.8325 19.84L37.1925 1.42C36.6825 0.54 35.7425 0 34.7225 0H13.4725C12.4625 0 11.5225 0.54 11.0025 1.42L7.7825 7.01H30.1325C31.3325 7.01 32.2025 8.19 31.8225 9.34L25.9425 27.41C25.7925 27.86 25.1125 27.76 25.1125 27.27V14.47C25.1125 13.49 24.3125 12.7 23.3325 12.7H4.5025L0.3825 19.84C-0.1275 20.72 -0.1275 21.79 0.3825 22.67L11.0025 41.1C11.5125 41.98 12.4525 42.52 13.4725 42.52H34.7325C35.7425 42.52 36.6825 41.98 37.2025 41.1H37.1925Z"
        fill="currentColor" />
</svg>