<svg xmlns="http://www.w3.org/2000/svg" viewBox="0 0 760 520" fill="none">
  <rect width="760" height="520" rx="32" fill="#1E1E1E"/>
  <path d="M46 426H714" stroke="#2C2C2E" stroke-width="2"/>
  <path d="M108 426V174L242 98V426M242 426V144H386V426M386 426V222L512 154L650 224V426" stroke="#98989D" stroke-width="3" stroke-linejoin="round"/>
  <path d="M132 222H184V274H132V222ZM132 302H184V354H132V302ZM270 182H322V234H270V182ZM270 262H322V314H270V262ZM422 256H474V308H422V256ZM540 256H592V308H540V256ZM422 336H474V388H422V336ZM540 336H592V388H540V336Z" stroke="#00E5FF" stroke-width="3"/>
  <path d="M78 426C78 386 94 366 126 366C158 366 174 386 174 426M594 426C594 382 612 360 648 360C684 360 702 382 702 426" stroke="#2C2C2E" stroke-width="3"/>
  <circle cx="358" cy="392" r="16" fill="#00E5FF" fill-opacity=".18" stroke="#00E5FF" stroke-width="3"/>
  <path d="M358 408V426M340 426H376" stroke="#00E5FF" stroke-width="3" stroke-linecap="round"/>
  <circle cx="500" cy="398" r="12" fill="#32D74B" fill-opacity=".18" stroke="#32D74B" stroke-width="3"/>
  <path d="M500 410V426M486 426H514" stroke="#32D74B" stroke-width="3" stroke-linecap="round"/>
  <path d="M92 132C210 34 442 38 648 118" stroke="#00E5FF" stroke-opacity=".16" stroke-width="18" stroke-linecap="round"/>
</svg>
